<svg xmlns="http://www.w3.org/2000/svg" viewBox="0 0 2778 1155" width="300" height="125">
	<style>
		tspan { white-space:pre }
		.shp0 { fill: #216ba5 } 
	</style>
	<g id="Layer">
		<g id="Layer">
			<g id="Layer">
				<path id="Layer" fill-rule="evenodd" class="shp0" d="M1645 330L1645 682C1645 699.67 1630.67 714 1613 714L1261 714C1243.33 714 1229 699.67 1229 682L1229 330C1229 312.33 1243.33 298 1261 298L1613 298C1630.67 298 1645 312.33 1645 330ZM1613 330L1261 330L1261 682L1613 682L1613 330Z" />
				<path id="Layer" class="shp0" d="M1165 234L1517 234L1517 266L1549 266L1549 234C1549 216.33 1534.67 202 1517 202L1165 202C1147.33 202 1133 216.33 1133 234L1133 586C1133 603.67 1147.33 618 1165 618L1197 618L1197 586L1165 586L1165 234Z" />
				<path id="Layer" class="shp0" d="M1309 602L1565 602C1573.84 602.05 1581.04 594.93 1581.09 586.09C1581.12 581.79 1579.41 577.67 1576.36 574.64L1512.36 510.64C1506.12 504.44 1496.04 504.44 1489.8 510.64L1469 531.44L1416.36 478.8C1410.12 472.6 1400.04 472.6 1393.8 478.8L1297.8 574.8C1291.61 581.11 1291.71 591.24 1298.02 597.43C1300.96 600.3 1304.89 601.94 1309 602Z" />
				<path id="Layer" class="shp0" d="M1517 474C1499.3 474 1485 459.7 1485 442C1485 424.3 1499.3 410 1517 410C1534.7 410 1549 424.3 1549 442C1549 459.7 1534.7 474 1517 474Z" />
			</g>
		</g>
	</g>
	<path id="click or drop here  " fill-rule="evenodd" class="shp0" d="M804.14 949.46C792.13 949.46 782.85 945.9 776.3 938.77C769.76 931.59 766.49 921.61 766.49 908.82C766.49 895.73 769.79 885.55 776.38 878.27C782.97 870.95 792.32 867.29 804.43 867.29C813.76 867.29 821.47 869.63 827.57 874.32C833.68 879.01 837.51 885.48 839.07 893.73L818.34 894.75C817.76 890.7 816.3 887.47 813.95 885.08C811.6 882.64 808.28 881.42 803.99 881.42C793.4 881.42 788.1 890.28 788.1 908.01C788.1 926.27 793.49 935.4 804.28 935.4C808.19 935.4 811.46 934.18 814.1 931.74C816.73 929.25 818.37 925.56 819 920.68L839.66 921.63C838.93 927.05 836.97 931.88 833.8 936.13C830.67 940.38 826.55 943.68 821.42 946.02C816.29 948.31 810.53 949.46 804.14 949.46ZM875.11 948L854.53 948L854.53 839.31L875.11 839.31L875.11 948ZM916.78 854.47L896.2 854.47L896.2 839.31L916.78 839.31L916.78 854.47ZM916.78 948L896.2 948L896.2 868.75L916.78 868.75L916.78 948ZM970.91 949.46C958.9 949.46 949.62 945.9 943.08 938.77C936.53 931.59 933.26 921.61 933.26 908.82C933.26 895.73 936.56 885.55 943.15 878.27C949.74 870.95 959.09 867.29 971.2 867.29C980.53 867.29 988.24 869.63 994.35 874.32C1000.45 879.01 1004.28 885.48 1005.84 893.73L985.12 894.75C984.53 890.7 983.07 887.47 980.72 885.08C978.38 882.64 975.06 881.42 970.76 881.42C960.17 881.42 954.87 890.28 954.87 908.01C954.87 926.27 960.26 935.4 971.05 935.4C974.96 935.4 978.23 934.18 980.87 931.74C983.5 929.25 985.14 925.56 985.78 920.68L1006.43 921.63C1005.7 927.05 1003.74 931.88 1000.57 936.13C997.44 940.38 993.32 943.68 988.19 946.02C983.06 948.31 977.3 949.46 970.91 949.46ZM1094.39 948L1071.91 948L1050.74 912.11L1041.88 918.26L1041.88 948L1021.3 948L1021.3 839.31L1041.88 839.31L1041.88 901.56L1070.15 868.75L1092.27 868.75L1064.44 899.66L1094.39 948ZM1221.69 908.3C1221.69 921.15 1218.13 931.23 1211 938.55C1203.87 945.82 1194 949.46 1181.41 949.46C1169.06 949.46 1159.36 945.8 1152.33 938.48C1145.3 931.15 1141.78 921.09 1141.78 908.3C1141.78 895.56 1145.3 885.55 1152.33 878.27C1159.36 870.95 1169.2 867.29 1181.85 867.29C1194.78 867.29 1204.65 870.83 1211.44 877.91C1218.27 884.94 1221.69 895.07 1221.69 908.3ZM1200.16 908.3C1200.16 898.88 1198.62 892.04 1195.54 887.79C1192.47 883.54 1188 881.42 1182.14 881.42C1169.64 881.42 1163.39 890.38 1163.39 908.3C1163.39 917.14 1164.9 923.88 1167.93 928.52C1171 933.11 1175.42 935.4 1181.19 935.4C1193.84 935.4 1200.16 926.37 1200.16 908.3ZM1258.6 948L1238.02 948L1238.02 887.36C1238.02 883.01 1237.95 879.4 1237.8 876.52C1237.71 873.59 1237.59 871 1237.44 868.75L1257.07 868.75C1257.22 869.63 1257.41 872.32 1257.65 876.81C1257.9 881.25 1258.02 884.2 1258.02 885.67L1258.31 885.67C1260.31 880.1 1262.09 876.2 1263.66 873.95C1265.22 871.66 1267.07 869.97 1269.22 868.9C1271.37 867.77 1274.06 867.21 1277.28 867.21C1279.92 867.21 1282.04 867.58 1283.65 868.31L1283.65 885.52C1280.33 884.79 1277.4 884.43 1274.86 884.43C1269.73 884.43 1265.73 886.5 1262.85 890.65C1260.02 894.8 1258.6 900.96 1258.6 909.11L1258.6 948ZM1409.34 948L1389.41 948C1389.22 947.27 1388.97 945.44 1388.68 942.51C1388.44 939.53 1388.32 937.06 1388.32 935.11L1388.02 935.11C1383.58 944.68 1375.13 949.46 1362.68 949.46C1353.45 949.46 1346.32 945.87 1341.29 938.7C1336.26 931.47 1333.75 921.39 1333.75 908.45C1333.75 895.32 1336.39 885.18 1341.66 878.05C1346.98 870.88 1354.5 867.29 1364.22 867.29C1369.83 867.29 1374.67 868.46 1378.72 870.8C1382.82 873.15 1385.97 876.64 1388.17 881.28L1388.32 881.28L1388.17 868.24L1388.17 839.31L1408.75 839.31L1408.75 930.71C1408.75 935.6 1408.95 941.36 1409.34 948ZM1388.46 907.94C1388.46 899.39 1387.02 892.82 1384.14 888.23C1381.31 883.6 1377.11 881.28 1371.54 881.28C1366.03 881.28 1361.93 883.52 1359.24 888.01C1356.55 892.46 1355.21 899.27 1355.21 908.45C1355.21 926.42 1360.61 935.4 1371.4 935.4C1376.82 935.4 1381.02 933.03 1383.99 928.3C1386.97 923.51 1388.46 916.73 1388.46 907.94ZM1450.28 948L1429.7 948L1429.7 887.36C1429.7 883.01 1429.63 879.4 1429.48 876.52C1429.38 873.59 1429.26 871 1429.11 868.75L1448.74 868.75C1448.89 869.63 1449.08 872.32 1449.33 876.81C1449.57 881.25 1449.69 884.2 1449.69 885.67L1449.99 885.67C1451.99 880.1 1453.77 876.2 1455.33 873.95C1456.9 871.66 1458.75 869.97 1460.9 868.9C1463.05 867.77 1465.73 867.21 1468.96 867.21C1471.59 867.21 1473.72 867.58 1475.33 868.31L1475.33 885.52C1472.01 884.79 1469.08 884.43 1466.54 884.43C1461.41 884.43 1457.41 886.5 1454.53 890.65C1451.7 894.8 1450.28 900.96 1450.28 909.11L1450.28 948ZM1563.36 908.3C1563.36 921.15 1559.8 931.23 1552.67 938.55C1545.54 945.82 1535.68 949.46 1523.08 949.46C1510.73 949.46 1501.03 945.8 1494 938.48C1486.97 931.15 1483.46 921.09 1483.46 908.3C1483.46 895.56 1486.97 885.55 1494 878.27C1501.03 870.95 1510.87 867.29 1523.52 867.29C1536.46 867.29 1546.32 870.83 1553.11 877.91C1559.94 884.94 1563.36 895.07 1563.36 908.3ZM1541.83 908.3C1541.83 898.88 1540.29 892.04 1537.22 887.79C1534.14 883.54 1529.67 881.42 1523.81 881.42C1511.31 881.42 1505.06 890.38 1505.06 908.3C1505.06 917.14 1506.57 923.88 1509.6 928.52C1512.68 933.11 1517.1 935.4 1522.86 935.4C1535.51 935.4 1541.83 926.37 1541.83 908.3ZM1654.7 908.01C1654.7 921.24 1652.04 931.47 1646.71 938.7C1641.44 945.87 1633.97 949.46 1624.3 949.46C1618.73 949.46 1613.88 948.27 1609.73 945.88C1605.62 943.43 1602.47 939.94 1600.28 935.4L1599.84 935.4C1600.13 936.87 1600.28 941.31 1600.28 948.73L1600.28 979.13L1579.7 979.13L1579.7 886.99C1579.7 879.52 1579.5 873.44 1579.11 868.75L1599.11 868.75C1599.35 869.63 1599.54 871.36 1599.69 873.95C1599.89 876.54 1599.99 879.1 1599.99 881.64L1600.28 881.64C1604.92 871.93 1613.37 867.07 1625.62 867.07C1634.85 867.07 1642 870.63 1647.08 877.76C1652.16 884.84 1654.7 894.92 1654.7 908.01ZM1633.24 908.01C1633.24 890.24 1627.79 881.35 1616.9 881.35C1611.43 881.35 1607.24 883.74 1604.31 888.53C1601.43 893.32 1599.99 900.01 1599.99 908.6C1599.99 917.14 1601.43 923.75 1604.31 928.44C1607.24 933.08 1611.39 935.4 1616.76 935.4C1627.75 935.4 1633.24 926.27 1633.24 908.01ZM1732.99 884.57L1733.29 884.57C1736.07 878.52 1739.56 874.12 1743.76 871.39C1747.96 868.66 1752.96 867.29 1758.77 867.29C1767.17 867.29 1773.62 869.88 1778.11 875.05C1782.6 880.22 1784.85 887.79 1784.85 897.76L1784.85 948L1764.34 948L1764.34 903.62C1764.34 889.7 1759.63 882.74 1750.21 882.74C1745.22 882.74 1741.19 884.89 1738.12 889.19C1735.09 893.44 1733.58 898.9 1733.58 905.59L1733.58 948L1713 948L1713 839.31L1733.58 839.31L1733.58 868.97C1733.58 874.3 1733.38 879.5 1732.99 884.57ZM1837.07 949.46C1825.16 949.46 1816 945.95 1809.6 938.92C1803.21 931.84 1800.01 921.54 1800.01 908.01C1800.01 894.92 1803.26 884.86 1809.75 877.83C1816.24 870.8 1825.45 867.29 1837.36 867.29C1848.74 867.29 1857.43 871.07 1863.44 878.64C1869.45 886.16 1872.45 897.2 1872.45 911.75L1872.45 912.33L1821.62 912.33C1821.62 920.04 1823.03 925.88 1825.86 929.84C1828.75 933.75 1832.83 935.7 1838.1 935.7C1845.37 935.7 1849.96 932.55 1851.87 926.25L1871.27 927.93C1865.66 942.28 1854.26 949.46 1837.07 949.46ZM1837.07 880.25C1832.24 880.25 1828.5 881.93 1825.86 885.3C1823.27 888.67 1821.91 893.39 1821.76 899.44L1852.52 899.44C1852.13 893.05 1850.6 888.26 1847.91 885.08C1845.22 881.86 1841.61 880.25 1837.07 880.25ZM1908.63 948L1888.05 948L1888.05 887.36C1888.05 883.01 1887.98 879.4 1887.83 876.52C1887.73 873.59 1887.61 871 1887.46 868.75L1907.09 868.75C1907.24 869.63 1907.43 872.32 1907.68 876.81C1907.92 881.25 1908.04 884.2 1908.04 885.67L1908.33 885.67C1910.34 880.1 1912.12 876.2 1913.68 873.95C1915.25 871.66 1917.1 869.97 1919.25 868.9C1921.4 867.77 1924.08 867.21 1927.3 867.21C1929.94 867.21 1932.07 867.58 1933.68 868.31L1933.68 885.52C1930.36 884.79 1927.43 884.43 1924.89 884.43C1919.76 884.43 1915.76 886.5 1912.88 890.65C1910.05 894.8 1908.63 900.96 1908.63 909.11L1908.63 948ZM1978.87 949.46C1966.96 949.46 1957.8 945.95 1951.4 938.92C1945.01 931.84 1941.81 921.54 1941.81 908.01C1941.81 894.92 1945.06 884.86 1951.55 877.83C1958.04 870.8 1967.25 867.29 1979.16 867.29C1990.54 867.29 1999.23 871.07 2005.23 878.64C2011.24 886.16 2014.24 897.2 2014.24 911.75L2014.24 912.33L1963.41 912.33C1963.41 920.04 1964.83 925.88 1967.66 929.84C1970.54 933.75 1974.62 935.7 1979.89 935.7C1987.17 935.7 1991.76 932.55 1993.66 926.25L2013.07 927.93C2007.46 942.28 1996.06 949.46 1978.87 949.46ZM1978.87 880.25C1974.04 880.25 1970.3 881.93 1967.66 885.3C1965.07 888.67 1963.71 893.39 1963.56 899.44L1994.32 899.44C1993.93 893.05 1992.4 888.26 1989.71 885.08C1987.02 881.86 1983.41 880.25 1978.87 880.25Z" />
</svg>